<mxfile host="app.diagrams.net" modified="2023-10-04T18:30:50.313Z" agent="Mozilla/5.0 (Windows NT 10.0; Win64; x64) AppleWebKit/537.36 (KHTML, like Gecko) Chrome/117.0.0.0 Safari/537.36" etag="fMDwS2dtAYgi6jgUJ3vL" version="22.0.2" type="device">
  <diagram name="Page-1" id="3HneR4ICvTnQCU9vIhTt">
    <mxGraphModel dx="3500" dy="3374" grid="1" gridSize="10" guides="1" tooltips="1" connect="1" arrows="1" fold="1" page="0" pageScale="1" pageWidth="850" pageHeight="1100" background="#FFFFFF" math="0" shadow="0">
      <root>
        <mxCell id="0" />
        <mxCell id="1" parent="0" />
        <mxCell id="lC9NgfsXyM7ageMsBcKr-55" style="edgeStyle=orthogonalEdgeStyle;rounded=0;orthogonalLoop=1;jettySize=auto;html=1;entryX=0;entryY=0.5;entryDx=0;entryDy=0;" edge="1" parent="1" source="lC9NgfsXyM7ageMsBcKr-9" target="lC9NgfsXyM7ageMsBcKr-22">
          <mxGeometry relative="1" as="geometry" />
        </mxCell>
        <mxCell id="lC9NgfsXyM7ageMsBcKr-57" value="" style="edgeStyle=orthogonalEdgeStyle;rounded=0;orthogonalLoop=1;jettySize=auto;html=1;" edge="1" parent="1" source="lC9NgfsXyM7ageMsBcKr-9" target="lC9NgfsXyM7ageMsBcKr-56">
          <mxGeometry relative="1" as="geometry">
            <Array as="points">
              <mxPoint x="-1490" y="-1930" />
              <mxPoint x="-1490" y="-1930" />
            </Array>
          </mxGeometry>
        </mxCell>
        <mxCell id="lC9NgfsXyM7ageMsBcKr-89" style="edgeStyle=orthogonalEdgeStyle;rounded=0;orthogonalLoop=1;jettySize=auto;html=1;entryX=0;entryY=0.5;entryDx=0;entryDy=0;" edge="1" parent="1" source="lC9NgfsXyM7ageMsBcKr-9" target="lC9NgfsXyM7ageMsBcKr-88">
          <mxGeometry relative="1" as="geometry">
            <Array as="points">
              <mxPoint x="-1510" y="-1930" />
              <mxPoint x="-1510" y="-1870" />
            </Array>
          </mxGeometry>
        </mxCell>
        <mxCell id="lC9NgfsXyM7ageMsBcKr-91" style="edgeStyle=orthogonalEdgeStyle;rounded=0;orthogonalLoop=1;jettySize=auto;html=1;entryX=0;entryY=0.5;entryDx=0;entryDy=0;" edge="1" parent="1" source="lC9NgfsXyM7ageMsBcKr-9" target="lC9NgfsXyM7ageMsBcKr-90">
          <mxGeometry relative="1" as="geometry" />
        </mxCell>
        <mxCell id="lC9NgfsXyM7ageMsBcKr-9" value="&lt;font color=&quot;#000000&quot;&gt;Home Page&lt;/font&gt;" style="whiteSpace=wrap;html=1;fillColor=#EFE1D1;strokeColor=#000000;fontColor=#ffffff;strokeWidth=1;" vertex="1" parent="1">
          <mxGeometry x="-1630" y="-1970" width="80" height="80" as="geometry" />
        </mxCell>
        <mxCell id="lC9NgfsXyM7ageMsBcKr-12" value="Login" style="whiteSpace=wrap;html=1;fillColor=#3F2E3E;strokeColor=#000000;fontColor=#ffffff;strokeWidth=1;" vertex="1" parent="1">
          <mxGeometry x="-1190" y="-2230" width="90" height="50" as="geometry" />
        </mxCell>
        <mxCell id="lC9NgfsXyM7ageMsBcKr-19" value="Help" style="whiteSpace=wrap;html=1;fillColor=#3F2E3E;strokeColor=#000000;fontColor=#ffffff;strokeWidth=1;" vertex="1" parent="1">
          <mxGeometry x="-1190" y="-2170" width="90" height="50" as="geometry" />
        </mxCell>
        <mxCell id="lC9NgfsXyM7ageMsBcKr-21" value="Currency" style="whiteSpace=wrap;html=1;fillColor=#3F2E3E;strokeColor=#000000;fontColor=#ffffff;strokeWidth=1;" vertex="1" parent="1">
          <mxGeometry x="-1190" y="-2050" width="90" height="50" as="geometry" />
        </mxCell>
        <mxCell id="lC9NgfsXyM7ageMsBcKr-41" style="edgeStyle=orthogonalEdgeStyle;rounded=0;orthogonalLoop=1;jettySize=auto;html=1;" edge="1" parent="1" source="lC9NgfsXyM7ageMsBcKr-22" target="lC9NgfsXyM7ageMsBcKr-23">
          <mxGeometry relative="1" as="geometry" />
        </mxCell>
        <mxCell id="lC9NgfsXyM7ageMsBcKr-42" style="edgeStyle=orthogonalEdgeStyle;rounded=0;orthogonalLoop=1;jettySize=auto;html=1;entryX=0;entryY=0.5;entryDx=0;entryDy=0;" edge="1" parent="1" source="lC9NgfsXyM7ageMsBcKr-22" target="lC9NgfsXyM7ageMsBcKr-19">
          <mxGeometry relative="1" as="geometry" />
        </mxCell>
        <mxCell id="lC9NgfsXyM7ageMsBcKr-43" style="edgeStyle=orthogonalEdgeStyle;rounded=0;orthogonalLoop=1;jettySize=auto;html=1;entryX=0;entryY=0.5;entryDx=0;entryDy=0;" edge="1" parent="1" source="lC9NgfsXyM7ageMsBcKr-22" target="lC9NgfsXyM7ageMsBcKr-12">
          <mxGeometry relative="1" as="geometry" />
        </mxCell>
        <mxCell id="lC9NgfsXyM7ageMsBcKr-46" style="edgeStyle=orthogonalEdgeStyle;rounded=0;orthogonalLoop=1;jettySize=auto;html=1;entryX=0;entryY=0.5;entryDx=0;entryDy=0;" edge="1" parent="1" source="lC9NgfsXyM7ageMsBcKr-22" target="lC9NgfsXyM7ageMsBcKr-21">
          <mxGeometry relative="1" as="geometry" />
        </mxCell>
        <mxCell id="lC9NgfsXyM7ageMsBcKr-50" style="edgeStyle=orthogonalEdgeStyle;rounded=0;orthogonalLoop=1;jettySize=auto;html=1;entryX=0;entryY=0.75;entryDx=0;entryDy=0;" edge="1" parent="1" source="lC9NgfsXyM7ageMsBcKr-22" target="lC9NgfsXyM7ageMsBcKr-24">
          <mxGeometry relative="1" as="geometry" />
        </mxCell>
        <mxCell id="lC9NgfsXyM7ageMsBcKr-22" value="Main Header" style="whiteSpace=wrap;html=1;fillColor=#A9C4EB;strokeColor=#000000;fontColor=#ffffff;strokeWidth=1;" vertex="1" parent="1">
          <mxGeometry x="-1470" y="-2085" width="120" height="60" as="geometry" />
        </mxCell>
        <mxCell id="lC9NgfsXyM7ageMsBcKr-76" value="" style="edgeStyle=orthogonalEdgeStyle;rounded=0;orthogonalLoop=1;jettySize=auto;html=1;" edge="1" parent="1" source="lC9NgfsXyM7ageMsBcKr-23" target="lC9NgfsXyM7ageMsBcKr-75">
          <mxGeometry relative="1" as="geometry" />
        </mxCell>
        <mxCell id="lC9NgfsXyM7ageMsBcKr-23" value="Search" style="whiteSpace=wrap;html=1;fillColor=#3F2E3E;strokeColor=#000000;fontColor=#ffffff;strokeWidth=1;" vertex="1" parent="1">
          <mxGeometry x="-1190" y="-2110" width="90" height="50" as="geometry" />
        </mxCell>
        <mxCell id="lC9NgfsXyM7ageMsBcKr-24" value="Your Basket" style="whiteSpace=wrap;html=1;fillColor=#3F2E3E;strokeColor=#000000;fontColor=#ffffff;strokeWidth=1;" vertex="1" parent="1">
          <mxGeometry x="-1190" y="-1990" width="90" height="50" as="geometry" />
        </mxCell>
        <mxCell id="lC9NgfsXyM7ageMsBcKr-78" style="edgeStyle=orthogonalEdgeStyle;rounded=0;orthogonalLoop=1;jettySize=auto;html=1;entryX=0;entryY=0.5;entryDx=0;entryDy=0;" edge="1" parent="1" source="lC9NgfsXyM7ageMsBcKr-56" target="lC9NgfsXyM7ageMsBcKr-58">
          <mxGeometry relative="1" as="geometry">
            <Array as="points">
              <mxPoint x="-910" y="-1920" />
              <mxPoint x="-910" y="-2025" />
            </Array>
          </mxGeometry>
        </mxCell>
        <mxCell id="lC9NgfsXyM7ageMsBcKr-79" style="edgeStyle=orthogonalEdgeStyle;rounded=0;orthogonalLoop=1;jettySize=auto;html=1;entryX=0;entryY=0.5;entryDx=0;entryDy=0;" edge="1" parent="1" source="lC9NgfsXyM7ageMsBcKr-56" target="lC9NgfsXyM7ageMsBcKr-61">
          <mxGeometry relative="1" as="geometry">
            <Array as="points">
              <mxPoint x="-910" y="-1920" />
              <mxPoint x="-910" y="-1965" />
            </Array>
          </mxGeometry>
        </mxCell>
        <mxCell id="lC9NgfsXyM7ageMsBcKr-81" style="edgeStyle=orthogonalEdgeStyle;rounded=0;orthogonalLoop=1;jettySize=auto;html=1;entryX=0;entryY=0.5;entryDx=0;entryDy=0;" edge="1" parent="1" source="lC9NgfsXyM7ageMsBcKr-56" target="lC9NgfsXyM7ageMsBcKr-65">
          <mxGeometry relative="1" as="geometry">
            <Array as="points">
              <mxPoint x="-910" y="-1920" />
              <mxPoint x="-910" y="-1845" />
            </Array>
          </mxGeometry>
        </mxCell>
        <mxCell id="lC9NgfsXyM7ageMsBcKr-82" style="edgeStyle=orthogonalEdgeStyle;rounded=0;orthogonalLoop=1;jettySize=auto;html=1;entryX=0;entryY=0.5;entryDx=0;entryDy=0;" edge="1" parent="1" source="lC9NgfsXyM7ageMsBcKr-56" target="lC9NgfsXyM7ageMsBcKr-69">
          <mxGeometry relative="1" as="geometry">
            <Array as="points">
              <mxPoint x="-910" y="-1920" />
              <mxPoint x="-910" y="-1785" />
            </Array>
          </mxGeometry>
        </mxCell>
        <mxCell id="lC9NgfsXyM7ageMsBcKr-83" style="edgeStyle=orthogonalEdgeStyle;rounded=0;orthogonalLoop=1;jettySize=auto;html=1;entryX=0;entryY=0.5;entryDx=0;entryDy=0;" edge="1" parent="1" source="lC9NgfsXyM7ageMsBcKr-56" target="lC9NgfsXyM7ageMsBcKr-70">
          <mxGeometry relative="1" as="geometry">
            <Array as="points">
              <mxPoint x="-910" y="-1920" />
              <mxPoint x="-910" y="-1725" />
            </Array>
          </mxGeometry>
        </mxCell>
        <mxCell id="lC9NgfsXyM7ageMsBcKr-84" style="edgeStyle=orthogonalEdgeStyle;rounded=0;orthogonalLoop=1;jettySize=auto;html=1;entryX=0;entryY=0.5;entryDx=0;entryDy=0;" edge="1" parent="1" source="lC9NgfsXyM7ageMsBcKr-56" target="lC9NgfsXyM7ageMsBcKr-71">
          <mxGeometry relative="1" as="geometry">
            <Array as="points">
              <mxPoint x="-910" y="-1920" />
              <mxPoint x="-910" y="-1665" />
            </Array>
          </mxGeometry>
        </mxCell>
        <mxCell id="lC9NgfsXyM7ageMsBcKr-85" style="edgeStyle=orthogonalEdgeStyle;rounded=0;orthogonalLoop=1;jettySize=auto;html=1;entryX=0;entryY=0.5;entryDx=0;entryDy=0;" edge="1" parent="1" source="lC9NgfsXyM7ageMsBcKr-56" target="lC9NgfsXyM7ageMsBcKr-72">
          <mxGeometry relative="1" as="geometry">
            <Array as="points">
              <mxPoint x="-910" y="-1920" />
              <mxPoint x="-910" y="-1605" />
            </Array>
          </mxGeometry>
        </mxCell>
        <mxCell id="lC9NgfsXyM7ageMsBcKr-86" style="edgeStyle=orthogonalEdgeStyle;rounded=0;orthogonalLoop=1;jettySize=auto;html=1;entryX=0;entryY=0.5;entryDx=0;entryDy=0;" edge="1" parent="1" source="lC9NgfsXyM7ageMsBcKr-56" target="lC9NgfsXyM7ageMsBcKr-77">
          <mxGeometry relative="1" as="geometry">
            <Array as="points">
              <mxPoint x="-910" y="-1920" />
              <mxPoint x="-910" y="-1545" />
            </Array>
          </mxGeometry>
        </mxCell>
        <mxCell id="lC9NgfsXyM7ageMsBcKr-103" style="edgeStyle=orthogonalEdgeStyle;rounded=0;orthogonalLoop=1;jettySize=auto;html=1;" edge="1" parent="1" source="lC9NgfsXyM7ageMsBcKr-56" target="lC9NgfsXyM7ageMsBcKr-73">
          <mxGeometry relative="1" as="geometry">
            <Array as="points">
              <mxPoint x="-910" y="-1920" />
              <mxPoint x="-910" y="-1485" />
            </Array>
          </mxGeometry>
        </mxCell>
        <mxCell id="lC9NgfsXyM7ageMsBcKr-124" style="edgeStyle=orthogonalEdgeStyle;rounded=0;orthogonalLoop=1;jettySize=auto;html=1;entryX=0;entryY=0.5;entryDx=0;entryDy=0;" edge="1" parent="1" target="lC9NgfsXyM7ageMsBcKr-63">
          <mxGeometry relative="1" as="geometry">
            <mxPoint x="-1030" y="-1920" as="sourcePoint" />
            <Array as="points">
              <mxPoint x="-910" y="-1920" />
              <mxPoint x="-910" y="-1905" />
            </Array>
          </mxGeometry>
        </mxCell>
        <mxCell id="lC9NgfsXyM7ageMsBcKr-56" value="Main Navigation" style="whiteSpace=wrap;html=1;fillColor=#A78295;strokeColor=#000000;fontColor=#ffffff;strokeWidth=1;" vertex="1" parent="1">
          <mxGeometry x="-1470" y="-1960" width="120" height="60" as="geometry" />
        </mxCell>
        <mxCell id="lC9NgfsXyM7ageMsBcKr-58" value="Bestsellers" style="whiteSpace=wrap;html=1;fillColor=#3F2E3E;strokeColor=#000000;fontColor=#ffffff;strokeWidth=1;" vertex="1" parent="1">
          <mxGeometry x="-880" y="-2050" width="90" height="50" as="geometry" />
        </mxCell>
        <mxCell id="lC9NgfsXyM7ageMsBcKr-61" value="Books" style="whiteSpace=wrap;html=1;fillColor=#3F2E3E;strokeColor=#000000;fontColor=#ffffff;strokeWidth=1;" vertex="1" parent="1">
          <mxGeometry x="-880" y="-1990" width="90" height="50" as="geometry" />
        </mxCell>
        <mxCell id="lC9NgfsXyM7ageMsBcKr-63" value="Signed" style="whiteSpace=wrap;html=1;fillColor=#3F2E3E;strokeColor=#000000;fontColor=#ffffff;strokeWidth=1;" vertex="1" parent="1">
          <mxGeometry x="-880" y="-1930" width="90" height="50" as="geometry" />
        </mxCell>
        <mxCell id="lC9NgfsXyM7ageMsBcKr-65" value="Trending" style="whiteSpace=wrap;html=1;fillColor=#3F2E3E;strokeColor=#000000;fontColor=#ffffff;strokeWidth=1;" vertex="1" parent="1">
          <mxGeometry x="-880" y="-1870" width="90" height="50" as="geometry" />
        </mxCell>
        <mxCell id="lC9NgfsXyM7ageMsBcKr-69" value="Rare" style="whiteSpace=wrap;html=1;fillColor=#3F2E3E;strokeColor=#000000;fontColor=#ffffff;strokeWidth=1;" vertex="1" parent="1">
          <mxGeometry x="-880" y="-1810" width="90" height="50" as="geometry" />
        </mxCell>
        <mxCell id="lC9NgfsXyM7ageMsBcKr-70" value="Gifts" style="whiteSpace=wrap;html=1;fillColor=#3F2E3E;strokeColor=#000000;fontColor=#ffffff;strokeWidth=1;" vertex="1" parent="1">
          <mxGeometry x="-880" y="-1750" width="90" height="50" as="geometry" />
        </mxCell>
        <mxCell id="lC9NgfsXyM7ageMsBcKr-71" value="Games" style="whiteSpace=wrap;html=1;fillColor=#3F2E3E;strokeColor=#000000;fontColor=#ffffff;strokeWidth=1;" vertex="1" parent="1">
          <mxGeometry x="-880" y="-1690" width="90" height="50" as="geometry" />
        </mxCell>
        <mxCell id="lC9NgfsXyM7ageMsBcKr-72" value="Businesses" style="whiteSpace=wrap;html=1;fillColor=#3F2E3E;strokeColor=#000000;fontColor=#ffffff;strokeWidth=1;" vertex="1" parent="1">
          <mxGeometry x="-880" y="-1630" width="90" height="50" as="geometry" />
        </mxCell>
        <mxCell id="lC9NgfsXyM7ageMsBcKr-73" value="Events" style="whiteSpace=wrap;html=1;fillColor=#3F2E3E;strokeColor=#000000;fontColor=#ffffff;strokeWidth=1;" vertex="1" parent="1">
          <mxGeometry x="-880" y="-1510" width="90" height="50" as="geometry" />
        </mxCell>
        <mxCell id="lC9NgfsXyM7ageMsBcKr-75" value="Advanced Search" style="whiteSpace=wrap;html=1;fillColor=#3F2E3E;strokeColor=#000000;fontColor=#ffffff;strokeWidth=1;" vertex="1" parent="1">
          <mxGeometry x="-1070" y="-2110" width="90" height="50" as="geometry" />
        </mxCell>
        <mxCell id="lC9NgfsXyM7ageMsBcKr-77" value="Our Shops" style="whiteSpace=wrap;html=1;fillColor=#3F2E3E;strokeColor=#000000;fontColor=#ffffff;strokeWidth=1;" vertex="1" parent="1">
          <mxGeometry x="-880" y="-1570" width="90" height="50" as="geometry" />
        </mxCell>
        <mxCell id="lC9NgfsXyM7ageMsBcKr-88" value="Main Content" style="whiteSpace=wrap;html=1;fillColor=#A78295;strokeColor=#000000;fontColor=#ffffff;strokeWidth=1;" vertex="1" parent="1">
          <mxGeometry x="-1235" y="-1900" width="120" height="60" as="geometry" />
        </mxCell>
        <mxCell id="lC9NgfsXyM7ageMsBcKr-133" style="edgeStyle=orthogonalEdgeStyle;rounded=0;orthogonalLoop=1;jettySize=auto;html=1;" edge="1" parent="1" source="lC9NgfsXyM7ageMsBcKr-90" target="lC9NgfsXyM7ageMsBcKr-108">
          <mxGeometry relative="1" as="geometry" />
        </mxCell>
        <mxCell id="lC9NgfsXyM7ageMsBcKr-135" style="edgeStyle=orthogonalEdgeStyle;rounded=0;orthogonalLoop=1;jettySize=auto;html=1;entryX=0;entryY=0.5;entryDx=0;entryDy=0;" edge="1" parent="1" source="lC9NgfsXyM7ageMsBcKr-90" target="lC9NgfsXyM7ageMsBcKr-110">
          <mxGeometry relative="1" as="geometry">
            <Array as="points">
              <mxPoint x="-1260" y="-1755" />
              <mxPoint x="-1260" y="-1695" />
            </Array>
          </mxGeometry>
        </mxCell>
        <mxCell id="lC9NgfsXyM7ageMsBcKr-140" style="edgeStyle=orthogonalEdgeStyle;rounded=0;orthogonalLoop=1;jettySize=auto;html=1;entryX=0;entryY=0.5;entryDx=0;entryDy=0;" edge="1" parent="1" source="lC9NgfsXyM7ageMsBcKr-90" target="lC9NgfsXyM7ageMsBcKr-111">
          <mxGeometry relative="1" as="geometry">
            <Array as="points">
              <mxPoint x="-1260" y="-1755" />
              <mxPoint x="-1260" y="-1635" />
            </Array>
          </mxGeometry>
        </mxCell>
        <mxCell id="lC9NgfsXyM7ageMsBcKr-141" style="edgeStyle=orthogonalEdgeStyle;rounded=0;orthogonalLoop=1;jettySize=auto;html=1;entryX=0;entryY=0.5;entryDx=0;entryDy=0;" edge="1" parent="1" source="lC9NgfsXyM7ageMsBcKr-90" target="lC9NgfsXyM7ageMsBcKr-112">
          <mxGeometry relative="1" as="geometry">
            <Array as="points">
              <mxPoint x="-1260" y="-1755" />
              <mxPoint x="-1260" y="-1575" />
            </Array>
          </mxGeometry>
        </mxCell>
        <mxCell id="lC9NgfsXyM7ageMsBcKr-144" style="edgeStyle=orthogonalEdgeStyle;rounded=0;orthogonalLoop=1;jettySize=auto;html=1;entryX=0;entryY=0.5;entryDx=0;entryDy=0;" edge="1" parent="1" source="lC9NgfsXyM7ageMsBcKr-90" target="lC9NgfsXyM7ageMsBcKr-109">
          <mxGeometry relative="1" as="geometry">
            <Array as="points">
              <mxPoint x="-1260" y="-1755" />
              <mxPoint x="-1260" y="-1515" />
            </Array>
          </mxGeometry>
        </mxCell>
        <mxCell id="lC9NgfsXyM7ageMsBcKr-145" style="edgeStyle=orthogonalEdgeStyle;rounded=0;orthogonalLoop=1;jettySize=auto;html=1;entryX=0;entryY=0.5;entryDx=0;entryDy=0;" edge="1" parent="1" source="lC9NgfsXyM7ageMsBcKr-90" target="lC9NgfsXyM7ageMsBcKr-107">
          <mxGeometry relative="1" as="geometry">
            <Array as="points">
              <mxPoint x="-1260" y="-1755" />
              <mxPoint x="-1260" y="-1455" />
            </Array>
          </mxGeometry>
        </mxCell>
        <mxCell id="lC9NgfsXyM7ageMsBcKr-146" style="edgeStyle=orthogonalEdgeStyle;rounded=0;orthogonalLoop=1;jettySize=auto;html=1;entryX=0;entryY=0.5;entryDx=0;entryDy=0;" edge="1" parent="1" source="lC9NgfsXyM7ageMsBcKr-90" target="lC9NgfsXyM7ageMsBcKr-106">
          <mxGeometry relative="1" as="geometry">
            <Array as="points">
              <mxPoint x="-1260" y="-1755" />
              <mxPoint x="-1260" y="-1395" />
            </Array>
          </mxGeometry>
        </mxCell>
        <mxCell id="lC9NgfsXyM7ageMsBcKr-147" style="edgeStyle=orthogonalEdgeStyle;rounded=0;orthogonalLoop=1;jettySize=auto;html=1;entryX=0;entryY=0.5;entryDx=0;entryDy=0;" edge="1" parent="1" source="lC9NgfsXyM7ageMsBcKr-90" target="lC9NgfsXyM7ageMsBcKr-120">
          <mxGeometry relative="1" as="geometry">
            <Array as="points">
              <mxPoint x="-1260" y="-1755" />
              <mxPoint x="-1260" y="-1800" />
              <mxPoint x="-1090" y="-1800" />
              <mxPoint x="-1090" y="-1755" />
            </Array>
          </mxGeometry>
        </mxCell>
        <mxCell id="lC9NgfsXyM7ageMsBcKr-148" style="edgeStyle=orthogonalEdgeStyle;rounded=0;orthogonalLoop=1;jettySize=auto;html=1;entryX=0;entryY=0.5;entryDx=0;entryDy=0;" edge="1" parent="1" source="lC9NgfsXyM7ageMsBcKr-90" target="lC9NgfsXyM7ageMsBcKr-105">
          <mxGeometry relative="1" as="geometry">
            <Array as="points">
              <mxPoint x="-1260" y="-1755" />
              <mxPoint x="-1260" y="-1335" />
            </Array>
          </mxGeometry>
        </mxCell>
        <mxCell id="lC9NgfsXyM7ageMsBcKr-149" style="edgeStyle=orthogonalEdgeStyle;rounded=0;orthogonalLoop=1;jettySize=auto;html=1;entryX=0;entryY=0.5;entryDx=0;entryDy=0;" edge="1" parent="1" source="lC9NgfsXyM7ageMsBcKr-90" target="lC9NgfsXyM7ageMsBcKr-104">
          <mxGeometry relative="1" as="geometry">
            <Array as="points">
              <mxPoint x="-1260" y="-1755" />
              <mxPoint x="-1260" y="-1800" />
              <mxPoint x="-1090" y="-1800" />
              <mxPoint x="-1090" y="-1695" />
            </Array>
          </mxGeometry>
        </mxCell>
        <mxCell id="lC9NgfsXyM7ageMsBcKr-151" style="edgeStyle=orthogonalEdgeStyle;rounded=0;orthogonalLoop=1;jettySize=auto;html=1;entryX=0;entryY=0.5;entryDx=0;entryDy=0;" edge="1" parent="1" source="lC9NgfsXyM7ageMsBcKr-90" target="lC9NgfsXyM7ageMsBcKr-114">
          <mxGeometry relative="1" as="geometry">
            <Array as="points">
              <mxPoint x="-1260" y="-1755" />
              <mxPoint x="-1260" y="-1800" />
              <mxPoint x="-1090" y="-1800" />
              <mxPoint x="-1090" y="-1635" />
            </Array>
          </mxGeometry>
        </mxCell>
        <mxCell id="lC9NgfsXyM7ageMsBcKr-153" style="edgeStyle=orthogonalEdgeStyle;rounded=0;orthogonalLoop=1;jettySize=auto;html=1;entryX=0;entryY=0.5;entryDx=0;entryDy=0;" edge="1" parent="1" source="lC9NgfsXyM7ageMsBcKr-90" target="lC9NgfsXyM7ageMsBcKr-115">
          <mxGeometry relative="1" as="geometry">
            <Array as="points">
              <mxPoint x="-1260" y="-1755" />
              <mxPoint x="-1260" y="-1800" />
              <mxPoint x="-1090" y="-1800" />
              <mxPoint x="-1090" y="-1575" />
            </Array>
          </mxGeometry>
        </mxCell>
        <mxCell id="lC9NgfsXyM7ageMsBcKr-154" style="edgeStyle=orthogonalEdgeStyle;rounded=0;orthogonalLoop=1;jettySize=auto;html=1;entryX=0;entryY=0.5;entryDx=0;entryDy=0;" edge="1" parent="1" source="lC9NgfsXyM7ageMsBcKr-90" target="lC9NgfsXyM7ageMsBcKr-95">
          <mxGeometry relative="1" as="geometry">
            <Array as="points">
              <mxPoint x="-1260" y="-1755" />
              <mxPoint x="-1260" y="-1800" />
              <mxPoint x="-1090" y="-1800" />
              <mxPoint x="-1090" y="-1515" />
            </Array>
          </mxGeometry>
        </mxCell>
        <mxCell id="lC9NgfsXyM7ageMsBcKr-155" style="edgeStyle=orthogonalEdgeStyle;rounded=0;orthogonalLoop=1;jettySize=auto;html=1;entryX=0;entryY=0.5;entryDx=0;entryDy=0;" edge="1" parent="1" source="lC9NgfsXyM7ageMsBcKr-90" target="lC9NgfsXyM7ageMsBcKr-116">
          <mxGeometry relative="1" as="geometry">
            <Array as="points">
              <mxPoint x="-1260" y="-1755" />
              <mxPoint x="-1260" y="-1800" />
              <mxPoint x="-1090" y="-1800" />
              <mxPoint x="-1090" y="-1455" />
            </Array>
          </mxGeometry>
        </mxCell>
        <mxCell id="lC9NgfsXyM7ageMsBcKr-156" style="edgeStyle=orthogonalEdgeStyle;rounded=0;orthogonalLoop=1;jettySize=auto;html=1;entryX=0;entryY=0.5;entryDx=0;entryDy=0;" edge="1" parent="1" source="lC9NgfsXyM7ageMsBcKr-90" target="lC9NgfsXyM7ageMsBcKr-117">
          <mxGeometry relative="1" as="geometry">
            <Array as="points">
              <mxPoint x="-1260" y="-1755" />
              <mxPoint x="-1260" y="-1800" />
              <mxPoint x="-1090" y="-1800" />
              <mxPoint x="-1090" y="-1395" />
            </Array>
          </mxGeometry>
        </mxCell>
        <mxCell id="lC9NgfsXyM7ageMsBcKr-157" style="edgeStyle=orthogonalEdgeStyle;rounded=0;orthogonalLoop=1;jettySize=auto;html=1;entryX=0;entryY=0.5;entryDx=0;entryDy=0;" edge="1" parent="1" source="lC9NgfsXyM7ageMsBcKr-90" target="lC9NgfsXyM7ageMsBcKr-125">
          <mxGeometry relative="1" as="geometry">
            <Array as="points">
              <mxPoint x="-1260" y="-1755" />
              <mxPoint x="-1260" y="-1800" />
              <mxPoint x="-1090" y="-1800" />
              <mxPoint x="-1090" y="-1335" />
            </Array>
          </mxGeometry>
        </mxCell>
        <mxCell id="lC9NgfsXyM7ageMsBcKr-158" style="edgeStyle=orthogonalEdgeStyle;rounded=0;orthogonalLoop=1;jettySize=auto;html=1;entryX=0;entryY=0.5;entryDx=0;entryDy=0;" edge="1" parent="1" source="lC9NgfsXyM7ageMsBcKr-90" target="lC9NgfsXyM7ageMsBcKr-118">
          <mxGeometry relative="1" as="geometry">
            <Array as="points">
              <mxPoint x="-1260" y="-1755" />
              <mxPoint x="-1260" y="-1800" />
              <mxPoint x="-1090" y="-1800" />
              <mxPoint x="-1090" y="-1275" />
            </Array>
          </mxGeometry>
        </mxCell>
        <mxCell id="lC9NgfsXyM7ageMsBcKr-162" style="edgeStyle=orthogonalEdgeStyle;rounded=0;orthogonalLoop=1;jettySize=auto;html=1;entryX=0;entryY=0.5;entryDx=0;entryDy=0;" edge="1" parent="1" source="lC9NgfsXyM7ageMsBcKr-90" target="lC9NgfsXyM7ageMsBcKr-126">
          <mxGeometry relative="1" as="geometry" />
        </mxCell>
        <mxCell id="lC9NgfsXyM7ageMsBcKr-163" style="edgeStyle=orthogonalEdgeStyle;rounded=0;orthogonalLoop=1;jettySize=auto;html=1;entryX=1;entryY=0.5;entryDx=0;entryDy=0;" edge="1" parent="1" source="lC9NgfsXyM7ageMsBcKr-90" target="lC9NgfsXyM7ageMsBcKr-131">
          <mxGeometry relative="1" as="geometry" />
        </mxCell>
        <mxCell id="lC9NgfsXyM7ageMsBcKr-164" style="edgeStyle=orthogonalEdgeStyle;rounded=0;orthogonalLoop=1;jettySize=auto;html=1;entryX=0;entryY=0.5;entryDx=0;entryDy=0;" edge="1" parent="1" source="lC9NgfsXyM7ageMsBcKr-90" target="lC9NgfsXyM7ageMsBcKr-128">
          <mxGeometry relative="1" as="geometry" />
        </mxCell>
        <mxCell id="lC9NgfsXyM7ageMsBcKr-165" style="edgeStyle=orthogonalEdgeStyle;rounded=0;orthogonalLoop=1;jettySize=auto;html=1;entryX=0;entryY=0.5;entryDx=0;entryDy=0;" edge="1" parent="1" source="lC9NgfsXyM7ageMsBcKr-90" target="lC9NgfsXyM7ageMsBcKr-127">
          <mxGeometry relative="1" as="geometry" />
        </mxCell>
        <mxCell id="lC9NgfsXyM7ageMsBcKr-167" style="edgeStyle=orthogonalEdgeStyle;rounded=0;orthogonalLoop=1;jettySize=auto;html=1;entryX=1;entryY=0.5;entryDx=0;entryDy=0;" edge="1" parent="1" source="lC9NgfsXyM7ageMsBcKr-90" target="lC9NgfsXyM7ageMsBcKr-130">
          <mxGeometry relative="1" as="geometry" />
        </mxCell>
        <mxCell id="lC9NgfsXyM7ageMsBcKr-168" style="edgeStyle=orthogonalEdgeStyle;rounded=0;orthogonalLoop=1;jettySize=auto;html=1;entryX=0;entryY=0.5;entryDx=0;entryDy=0;" edge="1" parent="1" source="lC9NgfsXyM7ageMsBcKr-90" target="lC9NgfsXyM7ageMsBcKr-129">
          <mxGeometry relative="1" as="geometry" />
        </mxCell>
        <mxCell id="lC9NgfsXyM7ageMsBcKr-169" style="edgeStyle=orthogonalEdgeStyle;rounded=0;orthogonalLoop=1;jettySize=auto;html=1;entryX=1;entryY=0.5;entryDx=0;entryDy=0;" edge="1" parent="1" source="lC9NgfsXyM7ageMsBcKr-90" target="lC9NgfsXyM7ageMsBcKr-132">
          <mxGeometry relative="1" as="geometry" />
        </mxCell>
        <mxCell id="lC9NgfsXyM7ageMsBcKr-90" value="Main Footer" style="whiteSpace=wrap;html=1;fillColor=#A78295;strokeColor=#000000;fontColor=#ffffff;strokeWidth=1;" vertex="1" parent="1">
          <mxGeometry x="-1470" y="-1785" width="120" height="60" as="geometry" />
        </mxCell>
        <mxCell id="lC9NgfsXyM7ageMsBcKr-95" value="Rare Books" style="whiteSpace=wrap;html=1;fillColor=#3F2E3E;strokeColor=#000000;fontColor=#ffffff;strokeWidth=1;" vertex="1" parent="1">
          <mxGeometry x="-1050" y="-1540" width="90" height="50" as="geometry" />
        </mxCell>
        <mxCell id="lC9NgfsXyM7ageMsBcKr-104" value="Delivery Information" style="whiteSpace=wrap;html=1;fillColor=#3F2E3E;strokeColor=#000000;fontColor=#ffffff;strokeWidth=1;" vertex="1" parent="1">
          <mxGeometry x="-1050" y="-1720" width="90" height="50" as="geometry" />
        </mxCell>
        <mxCell id="lC9NgfsXyM7ageMsBcKr-105" value="Modern Slavery Statement" style="whiteSpace=wrap;html=1;fillColor=#3F2E3E;strokeColor=#000000;fontColor=#ffffff;strokeWidth=1;" vertex="1" parent="1">
          <mxGeometry x="-1220" y="-1360" width="90" height="50" as="geometry" />
        </mxCell>
        <mxCell id="lC9NgfsXyM7ageMsBcKr-106" value="Company Statements" style="whiteSpace=wrap;html=1;fillColor=#3F2E3E;strokeColor=#000000;fontColor=#ffffff;strokeWidth=1;" vertex="1" parent="1">
          <mxGeometry x="-1220" y="-1420" width="90" height="50" as="geometry" />
        </mxCell>
        <mxCell id="lC9NgfsXyM7ageMsBcKr-107" value="Help" style="whiteSpace=wrap;html=1;fillColor=#3F2E3E;strokeColor=#000000;fontColor=#ffffff;strokeWidth=1;" vertex="1" parent="1">
          <mxGeometry x="-1220" y="-1480" width="90" height="50" as="geometry" />
        </mxCell>
        <mxCell id="lC9NgfsXyM7ageMsBcKr-108" value="Discover Blackwell&#39;s" style="whiteSpace=wrap;html=1;fillColor=#3F2E3E;strokeColor=#000000;fontColor=#ffffff;strokeWidth=1;" vertex="1" parent="1">
          <mxGeometry x="-1220" y="-1780" width="90" height="50" as="geometry" />
        </mxCell>
        <mxCell id="lC9NgfsXyM7ageMsBcKr-109" value="Students" style="whiteSpace=wrap;html=1;fillColor=#3F2E3E;strokeColor=#000000;fontColor=#ffffff;strokeWidth=1;" vertex="1" parent="1">
          <mxGeometry x="-1220" y="-1540" width="90" height="50" as="geometry" />
        </mxCell>
        <mxCell id="lC9NgfsXyM7ageMsBcKr-110" value="Careers at Blackwell&#39;s" style="whiteSpace=wrap;html=1;fillColor=#3F2E3E;strokeColor=#000000;fontColor=#ffffff;strokeWidth=1;" vertex="1" parent="1">
          <mxGeometry x="-1220" y="-1720" width="90" height="50" as="geometry" />
        </mxCell>
        <mxCell id="lC9NgfsXyM7ageMsBcKr-111" value="Affiliates" style="whiteSpace=wrap;html=1;fillColor=#3F2E3E;strokeColor=#000000;fontColor=#ffffff;strokeWidth=1;" vertex="1" parent="1">
          <mxGeometry x="-1220" y="-1660" width="90" height="50" as="geometry" />
        </mxCell>
        <mxCell id="lC9NgfsXyM7ageMsBcKr-112" value="Businesses" style="whiteSpace=wrap;html=1;fillColor=#3F2E3E;strokeColor=#000000;fontColor=#ffffff;strokeWidth=1;" vertex="1" parent="1">
          <mxGeometry x="-1220" y="-1600" width="90" height="50" as="geometry" />
        </mxCell>
        <mxCell id="lC9NgfsXyM7ageMsBcKr-114" value="Reserve &amp;amp; Collect" style="whiteSpace=wrap;html=1;fillColor=#3F2E3E;strokeColor=#000000;fontColor=#ffffff;strokeWidth=1;" vertex="1" parent="1">
          <mxGeometry x="-1050" y="-1660" width="90" height="50" as="geometry" />
        </mxCell>
        <mxCell id="lC9NgfsXyM7ageMsBcKr-115" value="Our Shops" style="whiteSpace=wrap;html=1;fillColor=#3F2E3E;strokeColor=#000000;fontColor=#ffffff;strokeWidth=1;" vertex="1" parent="1">
          <mxGeometry x="-1050" y="-1600" width="90" height="50" as="geometry" />
        </mxCell>
        <mxCell id="lC9NgfsXyM7ageMsBcKr-116" value="Mapping Service" style="whiteSpace=wrap;html=1;fillColor=#3F2E3E;strokeColor=#000000;fontColor=#ffffff;strokeWidth=1;" vertex="1" parent="1">
          <mxGeometry x="-1050" y="-1480" width="90" height="50" as="geometry" />
        </mxCell>
        <mxCell id="lC9NgfsXyM7ageMsBcKr-117" value="Edinburgh Schools" style="whiteSpace=wrap;html=1;fillColor=#3F2E3E;strokeColor=#000000;fontColor=#ffffff;strokeWidth=1;" vertex="1" parent="1">
          <mxGeometry x="-1050" y="-1420" width="90" height="50" as="geometry" />
        </mxCell>
        <mxCell id="lC9NgfsXyM7ageMsBcKr-118" value="Book Tokens" style="whiteSpace=wrap;html=1;fillColor=#3F2E3E;strokeColor=#000000;fontColor=#ffffff;strokeWidth=1;" vertex="1" parent="1">
          <mxGeometry x="-1050" y="-1300" width="90" height="50" as="geometry" />
        </mxCell>
        <mxCell id="lC9NgfsXyM7ageMsBcKr-120" value="Contact Us" style="whiteSpace=wrap;html=1;fillColor=#3F2E3E;strokeColor=#000000;fontColor=#ffffff;strokeWidth=1;" vertex="1" parent="1">
          <mxGeometry x="-1050" y="-1780" width="90" height="50" as="geometry" />
        </mxCell>
        <mxCell id="lC9NgfsXyM7ageMsBcKr-125" value="Blackwell&#39;s Gift Cards" style="whiteSpace=wrap;html=1;fillColor=#3F2E3E;strokeColor=#000000;fontColor=#ffffff;strokeWidth=1;" vertex="1" parent="1">
          <mxGeometry x="-1050" y="-1360" width="90" height="50" as="geometry" />
        </mxCell>
        <mxCell id="lC9NgfsXyM7ageMsBcKr-126" value="Facebook" style="whiteSpace=wrap;html=1;fillColor=#3F2E3E;strokeColor=#000000;fontColor=#ffffff;strokeWidth=1;" vertex="1" parent="1">
          <mxGeometry x="-1380" y="-1690" width="90" height="50" as="geometry" />
        </mxCell>
        <mxCell id="lC9NgfsXyM7ageMsBcKr-127" value="Twitter" style="whiteSpace=wrap;html=1;fillColor=#3F2E3E;strokeColor=#000000;fontColor=#ffffff;strokeWidth=1;" vertex="1" parent="1">
          <mxGeometry x="-1380" y="-1630" width="90" height="50" as="geometry" />
        </mxCell>
        <mxCell id="lC9NgfsXyM7ageMsBcKr-128" value="YouTube" style="whiteSpace=wrap;html=1;fillColor=#3F2E3E;strokeColor=#000000;fontColor=#ffffff;strokeWidth=1;" vertex="1" parent="1">
          <mxGeometry x="-1380" y="-1570" width="90" height="50" as="geometry" />
        </mxCell>
        <mxCell id="lC9NgfsXyM7ageMsBcKr-129" value="Instagram" style="whiteSpace=wrap;html=1;fillColor=#3F2E3E;strokeColor=#000000;fontColor=#ffffff;strokeWidth=1;" vertex="1" parent="1">
          <mxGeometry x="-1380" y="-1510" width="90" height="50" as="geometry" />
        </mxCell>
        <mxCell id="lC9NgfsXyM7ageMsBcKr-130" value="Terms &amp;amp; Conditions" style="whiteSpace=wrap;html=1;fillColor=#3F2E3E;strokeColor=#000000;fontColor=#ffffff;strokeWidth=1;" vertex="1" parent="1">
          <mxGeometry x="-1530" y="-1630" width="90" height="50" as="geometry" />
        </mxCell>
        <mxCell id="lC9NgfsXyM7ageMsBcKr-131" value="Cookies" style="whiteSpace=wrap;html=1;fillColor=#3F2E3E;strokeColor=#000000;fontColor=#ffffff;strokeWidth=1;" vertex="1" parent="1">
          <mxGeometry x="-1530" y="-1690" width="90" height="50" as="geometry" />
        </mxCell>
        <mxCell id="lC9NgfsXyM7ageMsBcKr-132" value="Privacy" style="whiteSpace=wrap;html=1;fillColor=#3F2E3E;strokeColor=#000000;fontColor=#ffffff;strokeWidth=1;" vertex="1" parent="1">
          <mxGeometry x="-1530" y="-1570" width="90" height="50" as="geometry" />
        </mxCell>
      </root>
    </mxGraphModel>
  </diagram>
</mxfile>
